<svg width="20" height="20" viewBox="0 0 20 20" fill="none" xmlns="http://www.w3.org/2000/svg">
<path d="M9.99997 4.99999C9.9999 4.67041 9.90211 4.34824 9.71897 4.07423C9.53583 3.80021 9.27556 3.58664 8.97106 3.46053C8.66656 3.33441 8.33151 3.30141 8.00825 3.36569C7.685 3.42996 7.38806 3.58864 7.15497 3.82166L2.15497 8.82166C1.84252 9.1342 1.66699 9.55805 1.66699 9.99999C1.66699 10.4419 1.84252 10.8658 2.15497 11.1783L7.15497 16.1783C7.38806 16.4113 7.685 16.57 8.00825 16.6343C8.33151 16.6986 8.66656 16.6656 8.97106 16.5395C9.27556 16.4133 9.53583 16.1998 9.71897 15.9258C9.90211 15.6517 9.9999 15.3296 9.99997 15V4.99999Z" stroke="black" stroke-width="1.66667" stroke-linecap="round" stroke-linejoin="round"/>
<path d="M18.3333 4.99999C18.3332 4.67041 18.2354 4.34824 18.0523 4.07423C17.8692 3.80021 17.6089 3.58664 17.3044 3.46053C16.9999 3.33441 16.6648 3.30141 16.3416 3.36569C16.0183 3.42996 15.7214 3.58864 15.4883 3.82166L10.4883 8.82166C10.1759 9.1342 10.0003 9.55805 10.0003 9.99999C10.0003 10.4419 10.1759 10.8658 10.4883 11.1783L15.4883 16.1783C15.7214 16.4113 16.0183 16.57 16.3416 16.6343C16.6648 16.6986 16.9999 16.6656 17.3044 16.5395C17.6089 16.4133 17.8692 16.1998 18.0523 15.9258C18.2354 15.6517 18.3332 15.3296 18.3333 15V4.99999Z" stroke="black" stroke-width="1.66667" stroke-linecap="round" stroke-linejoin="round"/>
</svg>
