<svg width="20" height="20" viewBox="0 0 20 20" fill="none" xmlns="http://www.w3.org/2000/svg">
<path d="M3.33325 11.6667C3.17555 11.6672 3.02094 11.623 2.88737 11.5392C2.75381 11.4553 2.64677 11.3353 2.5787 11.1931C2.51063 11.0508 2.48432 10.8922 2.50283 10.7356C2.52133 10.579 2.5839 10.4308 2.68325 10.3084L10.9332 1.80836C10.9951 1.73693 11.0795 1.68865 11.1724 1.67147C11.2653 1.65428 11.3613 1.6692 11.4447 1.71378C11.528 1.75835 11.5937 1.82994 11.631 1.91678C11.6683 2.00362 11.675 2.10056 11.6499 2.19169L10.0499 7.20836C10.0027 7.33463 9.98689 7.47046 10.0037 7.6042C10.0206 7.73793 10.0696 7.86559 10.1467 7.97621C10.2237 8.08683 10.3264 8.17712 10.446 8.23932C10.5656 8.30153 10.6984 8.3338 10.8332 8.33336H16.6666C16.8243 8.33282 16.9789 8.37704 17.1124 8.46088C17.246 8.54471 17.3531 8.66473 17.4211 8.80698C17.4892 8.94923 17.5155 9.10787 17.497 9.26448C17.4785 9.42108 17.4159 9.56922 17.3166 9.69169L9.06658 18.1917C9.00469 18.2631 8.92036 18.3114 8.82743 18.3286C8.73449 18.3458 8.63848 18.3308 8.55514 18.2863C8.4718 18.2417 8.40609 18.1701 8.3688 18.0833C8.33151 17.9964 8.32485 17.8995 8.34991 17.8084L9.94991 12.7917C9.99709 12.6654 10.0129 12.5296 9.99609 12.3959C9.97924 12.2621 9.9302 12.1345 9.85317 12.0238C9.77614 11.9132 9.67343 11.8229 9.55385 11.7607C9.43426 11.6985 9.30137 11.6663 9.16658 11.6667H3.33325Z" stroke="black" stroke-width="1.66667" stroke-linecap="round" stroke-linejoin="round"/>
</svg>
