<svg width="132" height="27" viewBox="0 0 132 27" fill="none" xmlns="http://www.w3.org/2000/svg">
<g clip-path="url(#clip0_26_1737)">
<path d="M28.6414 24.5547C28.0085 24.5547 27.6218 24.1211 27.6218 23.4297V9.44922C27.6218 8.75781 28.0085 8.32422 28.6414 8.32422C29.2742 8.32422 29.6726 8.75781 29.6726 9.44922V23.4297C29.6726 24.1211 29.2742 24.5547 28.6414 24.5547ZM41.7387 23.4297C41.7387 24.1328 41.352 24.5547 40.7192 24.5547C40.0864 24.5547 39.7114 24.1328 39.7114 23.4297V16.6211C39.7114 14.7109 38.7504 13.7031 37.016 13.7031C34.9887 13.7031 33.7114 15.1445 33.7114 17.5469V23.4297C33.7114 24.1328 33.3364 24.5547 32.7035 24.5547C32.0707 24.5547 31.6957 24.1328 31.6957 23.4297V13.1289C31.6957 12.4258 32.0825 12.0039 32.7035 12.0039C33.3246 12.0039 33.6996 12.4141 33.6996 13.1055V14.3711H33.8051C34.3207 12.8125 35.6567 11.9219 37.5434 11.9219C40.2035 11.9219 41.7387 13.4219 41.7387 16.0117V23.4297ZM49.2228 24.6367C47.4884 24.6367 46.1173 23.875 45.5665 22.6211H45.461V23.4531C45.461 24.1562 45.1095 24.5547 44.4884 24.5547C43.879 24.5547 43.5275 24.1445 43.5275 23.4297V8.65234C43.5275 7.94922 43.9025 7.52734 44.5353 7.52734C45.1681 7.52734 45.5431 7.94922 45.5431 8.65234V14.0664H45.6485C46.0235 12.7891 47.5001 11.9219 49.2931 11.9219C52.1876 11.9219 54.0157 13.9492 54.0157 17.1836V19.3633C54.0157 22.6094 52.1642 24.6367 49.2228 24.6367ZM45.5431 19.4453C45.5431 21.4375 46.9259 22.8789 48.8595 22.8789C50.84 22.8789 51.965 21.4492 51.965 18.9648V17.6875C51.965 15.168 50.8165 13.6797 48.8126 13.6797C46.8087 13.6797 45.5431 15.1094 45.5431 17.3711V19.4453ZM60.3279 11.9102C63.3514 11.9102 65.6131 13.8906 65.6131 17.3359V19.2109C65.6131 22.668 63.3514 24.6484 60.3279 24.6484C57.2928 24.6484 55.031 22.668 55.031 19.2109V17.3359C55.031 13.8906 57.2928 11.9102 60.3279 11.9102ZM60.3279 13.668C58.3357 13.668 57.0701 15.1914 57.0701 17.5117V19.0352C57.0701 21.4141 58.3357 22.9023 60.3279 22.9023C62.3201 22.9023 63.5623 21.4141 63.5623 19.0352V17.5117C63.5623 15.1914 62.3201 13.668 60.3279 13.668ZM66.3471 23.6406C66.3471 23.4062 66.4292 23.1367 66.5698 22.9492L69.8393 18.2969L66.4526 13.6797C66.3237 13.5039 66.2299 13.1992 66.2299 12.9648C66.2299 12.4609 66.6401 12.0508 67.1557 12.0508C67.5424 12.0508 67.8706 12.2617 68.1518 12.6836L70.9292 16.8086H71.0581L73.8354 12.6953C74.1284 12.2617 74.4214 12.0625 74.8198 12.0625C75.3471 12.0625 75.7221 12.4492 75.7221 12.9883C75.7221 13.2109 75.6518 13.4219 75.5112 13.6211L72.1479 18.2969L75.5229 22.9141C75.6635 23.1016 75.7573 23.3828 75.7573 23.6172C75.7573 24.1328 75.3471 24.5547 74.8432 24.5547C74.4448 24.5547 74.0932 24.332 73.8237 23.9219L71.0581 19.7852H70.9292L68.2339 23.8984C67.9409 24.3438 67.6362 24.5547 67.2729 24.5547C66.7573 24.5547 66.3471 24.1445 66.3471 23.6406ZM82.2059 23.4297C82.2059 24.1211 81.8192 24.5547 81.1864 24.5547C80.5418 24.5547 80.1668 24.1211 80.1668 23.4297V10.2344C80.1668 8.94531 80.7059 8.44141 82.0887 8.44141H85.9559C89.1082 8.44141 91.0887 10.293 91.0887 13.2227C91.0887 15.2969 89.952 16.9727 88.1239 17.6289L90.8309 22.7734C90.9364 22.9961 91.0184 23.3125 91.0184 23.5703C91.0184 24.0859 90.5731 24.4727 90.0223 24.4727C89.5067 24.4727 89.202 24.2266 88.8504 23.5352L86.0965 18.0742H82.2059V23.4297ZM82.2059 16.293H85.616C87.8075 16.293 88.991 15.2617 88.991 13.3281C88.991 11.3828 87.7723 10.2578 85.6981 10.2578H82.2059V16.293ZM92.0923 19.2695V17.3242C92.0923 14.1367 94.2017 11.9102 97.2368 11.9102C100.178 11.9102 102.241 14.0547 102.241 17.0781C102.241 18.4141 102.006 18.7891 101.139 18.7891H94.1314V19.4336C94.1431 21.5664 95.4204 22.9023 97.5298 22.9023C98.5728 22.9023 99.3814 22.5859 100.038 21.9531C100.67 21.3672 100.811 21.2734 101.151 21.2734C101.596 21.2734 101.936 21.6367 101.936 22.1289C101.936 22.4922 101.713 22.9375 101.362 23.3008C100.588 24.1328 99.0884 24.6484 97.436 24.6484C94.1314 24.6484 92.0923 22.5977 92.0923 19.2695ZM94.1314 17.1484H100.237V17.1133C100.237 14.9922 99.0767 13.6445 97.2603 13.6445C95.397 13.6445 94.1314 15.0508 94.1314 17.1133V17.1484ZM102.904 21.9297C102.904 21.3672 103.244 21.0273 103.783 21.0273C104.112 21.0273 104.358 21.1914 104.768 21.6953C105.518 22.5625 106.479 22.9961 107.733 22.9961C109.315 22.9961 110.311 22.2812 110.311 21.1445C110.311 20.2773 109.678 19.6211 108.6 19.3633L106.256 18.8242C104.112 18.332 103.08 17.2539 103.08 15.5195C103.08 13.3281 104.838 11.9102 107.58 11.9102C108.811 11.9102 109.947 12.2266 110.815 12.8008C111.553 13.293 112.01 13.9609 112.01 14.5703C112.01 15.0859 111.67 15.4023 111.154 15.4023C110.791 15.4023 110.604 15.2852 110.112 14.7812C109.291 13.9023 108.576 13.5625 107.498 13.5625C105.987 13.5625 105.061 14.2539 105.061 15.3906C105.061 16.2812 105.635 16.8203 106.865 17.125L109.151 17.6758C111.295 18.1914 112.291 19.2344 112.291 20.9805C112.291 23.2305 110.51 24.6484 107.627 24.6484C106.373 24.6484 105.19 24.3555 104.276 23.8398C103.397 23.3359 102.904 22.6445 102.904 21.9297ZM113.06 19.2695V17.3242C113.06 14.1367 115.17 11.9102 118.205 11.9102C121.146 11.9102 123.209 14.0547 123.209 17.0781C123.209 18.4141 122.974 18.7891 122.107 18.7891H115.099V19.4336C115.111 21.5664 116.389 22.9023 118.498 22.9023C119.541 22.9023 120.349 22.5859 121.006 21.9531C121.639 21.3672 121.779 21.2734 122.119 21.2734C122.564 21.2734 122.904 21.6367 122.904 22.1289C122.904 22.4922 122.682 22.9375 122.33 23.3008C121.557 24.1328 120.057 24.6484 118.404 24.6484C115.099 24.6484 113.06 22.5977 113.06 19.2695ZM115.099 17.1484H121.205V17.1133C121.205 14.9922 120.045 13.6445 118.228 13.6445C116.365 13.6445 115.099 15.0508 115.099 17.1133V17.1484ZM125.337 21.168V13.832H124.447C123.873 13.832 123.509 13.5156 123.509 12.9883C123.509 12.4609 123.861 12.1328 124.447 12.1328H125.349V10.1055C125.349 9.40234 125.724 8.99219 126.345 8.99219C126.978 8.99219 127.353 9.40234 127.353 10.1055V12.1328H129.005C129.591 12.1328 129.943 12.4609 129.943 12.9883C129.943 13.5156 129.58 13.832 129.005 13.832H127.365V21.1914C127.365 22.5039 127.693 22.8906 128.83 22.8906C129.158 22.8906 129.392 22.8555 129.615 22.8555C130.072 22.8555 130.388 23.1484 130.388 23.6055C130.388 23.9336 130.236 24.2031 129.873 24.3789C129.544 24.543 129.087 24.625 128.419 24.625C126.193 24.625 125.337 23.7344 125.337 21.168Z" fill="#2D2A32"/>
<path d="M21.0478 15H15.0341L13.0295 18H9.02042L7.01587 15H1.0022" stroke="#2D2A32" stroke-width="2" stroke-linecap="round" stroke-linejoin="round"/>
<path d="M21.9414 14.5515C22.0111 14.6906 22.0478 14.8442 22.0479 14.9998V20.9998C22.0479 21.7961 21.7306 22.5594 21.167 23.1218C20.6034 23.6841 19.8391 23.9998 19.043 23.9998H3.00684C2.21084 23.9997 1.44637 23.6841 0.882812 23.1218C0.31929 22.5594 0.00195313 21.796 0.00195312 20.9998V14.9998L0.00878906 14.8835C0.0223044 14.7682 0.0560797 14.6558 0.108398 14.5515L3.30859 8.17358C3.54409 9.00751 3.90999 9.78654 4.38574 10.4861L2.00195 15.2351V20.9998C2.00195 21.2639 2.10719 21.5182 2.29492 21.7058C2.48306 21.8935 2.73981 21.9997 3.00684 21.9998H19.043C19.3101 21.9998 19.5657 21.8936 19.7539 21.7058C19.942 21.5181 20.0479 21.2642 20.0479 20.9998V15.2371L17.6631 10.4861C18.139 9.78648 18.5047 9.00763 18.7402 8.17358L21.9414 14.5515Z" fill="#2D2A32"/>
<path d="M7.01595 9C7.64703 9.83953 8.52687 10.4597 9.53083 10.7726C10.5348 11.0855 11.612 11.0753 12.6098 10.7434C13.6076 10.4116 14.4755 9.77488 15.0905 8.92355C15.7055 8.07222 16.0365 7.04941 16.0365 6C16.0365 4.80653 15.5613 3.66193 14.7154 2.81802C13.8696 1.97411 12.7224 1.5 11.5262 1.5C10.1932 1.5 8.98042 2.04 8.10843 2.91L6.01367 5" stroke="#7A2CFF" stroke-width="2" stroke-linecap="round" stroke-linejoin="round"/>
<path d="M6.01367 1V5H10.0228" stroke="#7A2CFF" stroke-width="2" stroke-linecap="round" stroke-linejoin="round"/>
</g>
<defs>
<clipPath id="clip0_26_1737">
<rect width="132" height="27" fill="white"/>
</clipPath>
</defs>
</svg>
